# xmcd CD database file
#
# Track frame offsets:
#	183
#	17120
#	36025
#	54865
#	71158
#	89920
#	113765
#	137728
#	159225
#	176598
#	193263
#	206750
#
# Disc length: 3008 seconds
#
# Revision: 0
# Processed by: cddbd v1.5.1PL2 Copyright (c) Steve Scherf et al.
# Submitted via: CDex 1.51
#
DISCID=aa0bbe0c
DTITLE=Sarah Jory - Sarah's Dream
DYEAR=1990
DGENRE=Country
TTITLE0=One More Time - My Shoes Keep Walking Back
TTITLE1=I Always Get Lucky With You
TTITLE2=In The Garden
TTITLE3=Under The Boardwalk
TTITLE4=Gonna Build A Mountain
TTITLE5=Sarah's Dream
TTITLE6=Bye Bye Love /WhenWill I Be Loved
TTITLE7=Cry
TTITLE8=Why Me Lord
TTITLE9=Sweet Dreams
TTITLE10=Tennessee Flat Top Box
TTITLE11=How Great Thou Art
EXTD=YEAR: 1990
EXTT0=
EXTT1=
EXTT2=
EXTT3=
EXTT4=
EXTT5=
EXTT6=
EXTT7=
EXTT8=
EXTT9=
EXTT10=
EXTT11=
PLAYORDER=
